<svg width="22" height="25" viewBox="0 0 22 25" fill="none" xmlns="http://www.w3.org/2000/svg">
<path d="M19.3128 0H2.56108C2.22356 0.00119476 1.88958 0.0688583 1.57821 0.199127C1.26684 0.329395 0.984172 0.519718 0.746355 0.759228C0.508538 0.998738 0.320224 1.28274 0.192167 1.59503C0.06411 1.90732 -0.00118279 2.24177 1.62185e-05 2.57929V19.2946C-0.00118279 19.6321 0.06411 19.9665 0.192167 20.2788C0.320224 20.5911 0.508538 20.8751 0.746355 21.1146C0.984172 21.3541 1.26684 21.5445 1.57821 21.6747C1.88958 21.805 2.22356 21.8727 2.56108 21.8739H16.7335L16.0773 19.5589L17.6723 21.2268L19.1852 22.6212L21.8739 25V2.57929C21.8751 2.24177 21.8098 1.90732 21.6817 1.59503C21.5537 1.28274 21.3654 0.998738 21.1275 0.759228C20.8897 0.519718 20.6071 0.329395 20.2957 0.199127C19.9843 0.0688583 19.6503 0.00119476 19.3128 0ZM14.4823 16.3234C14.4823 16.3234 14.0357 15.7856 13.6621 15.3117C14.5673 15.099 15.368 14.5727 15.9224 13.8261C15.4715 14.1254 14.9885 14.373 14.4823 14.5643C13.898 14.8148 13.2862 14.9953 12.6595 15.1021C11.5874 15.3042 10.487 15.3042 9.41489 15.1021C8.79201 14.9794 8.1818 14.7994 7.59207 14.5643C7.27816 14.4477 6.97349 14.3076 6.68066 14.1451L6.56217 14.0813H6.5166C6.28875 13.9537 6.16115 13.8626 6.16115 13.8626C6.69606 14.5945 7.4697 15.1167 8.34854 15.339L7.51916 16.3781C6.7763 16.3974 6.03999 16.2347 5.37438 15.9043C4.70877 15.5739 4.13407 15.0857 3.70034 14.4823C3.74659 11.945 4.36996 9.45158 5.52317 7.19103C6.52852 6.40046 7.7547 5.94184 9.0321 5.8786L9.1597 6.03354C7.95661 6.32953 6.83335 6.88649 5.8695 7.66497C5.8695 7.66497 6.14293 7.51914 6.60775 7.3004C7.50584 6.89269 8.46227 6.62821 9.44223 6.51659H9.66097C10.4995 6.41566 11.3471 6.41566 12.1856 6.51659C13.5059 6.66623 14.7845 7.07177 15.9497 7.71054C15.0343 6.96778 13.972 6.42731 12.8327 6.12468L13.0059 5.92417C14.2859 5.98793 15.5148 6.44639 16.5239 7.2366C17.675 9.49794 18.2982 11.9909 18.3467 14.5279C17.8977 15.1194 17.3108 15.5922 16.6373 15.9051C15.9638 16.2181 15.224 16.3616 14.4823 16.3234Z" fill="white"/>
<path d="M13.2337 13.261C13.9384 13.261 14.5097 12.6408 14.5097 11.8757C14.5097 11.1106 13.9384 10.4904 13.2337 10.4904C12.529 10.4904 11.9577 11.1106 11.9577 11.8757C11.9577 12.6408 12.529 13.261 13.2337 13.261Z" fill="white"/>
<path d="M8.67667 10.4903C8.3955 10.4664 8.1137 10.5284 7.8685 10.668C7.62329 10.8077 7.42622 11.0184 7.30331 11.2724C7.1804 11.5264 7.13744 11.8117 7.18011 12.0906C7.22278 12.3696 7.34907 12.629 7.54229 12.8346C7.73551 13.0403 7.98658 13.1825 8.26231 13.2424C8.53805 13.3024 8.82548 13.2772 9.08664 13.1704C9.3478 13.0635 9.57039 12.8799 9.72501 12.6439C9.87963 12.4078 9.959 12.1304 9.95264 11.8483C9.96009 11.5 9.83062 11.1626 9.59204 10.9087C9.35345 10.6548 9.0248 10.5046 8.67667 10.4903Z" fill="white"/>
</svg>
