<svg width="28" height="25" viewBox="0 0 28 25" fill="none" xmlns="http://www.w3.org/2000/svg">
<path d="M25.2825 0.27749L1.06139 10.3584C1.06139 10.3584 -0.0837457 10.7746 0.00489245 11.5424C0.095917 12.3115 1.03037 12.6633 1.03037 12.6633L7.12493 14.839C7.12493 14.839 8.96451 21.2387 9.32656 22.4565C9.68861 23.6708 9.97907 23.6994 9.97907 23.6994C10.3162 23.8549 10.6227 23.6074 10.6227 23.6074L14.5603 19.7997L20.6971 24.7914C22.3571 25.5595 22.9612 23.9592 22.9612 23.9592L27.2734 0.886707C27.2734 -0.650143 25.2825 0.27749 25.2825 0.27749ZM20.9944 22.1036L14.4291 16.7649L12.3917 18.7343L12.8397 14.5441L21.591 6.25L9.66202 13.3322L4.37066 11.4435L24.5587 3.04061L20.9944 22.1036Z" fill="white"/>
</svg>
