<svg width="25" height="25" viewBox="0 0 25 25" fill="none" xmlns="http://www.w3.org/2000/svg">
<path fill-rule="evenodd" clip-rule="evenodd" d="M24.5932 2.37099C25.1356 1.82858 25.1356 0.949195 24.5932 0.406792C24.0508 -0.135597 23.1714 -0.135597 22.629 0.406792L14.3722 8.6636L8.43531 0.567569C8.17367 0.210792 7.75771 0 7.31528 0H1.38889C0.865514 0 0.38657 0.294222 0.15 0.761084C-0.0865832 1.22794 -0.040625 1.78815 0.268875 2.21021L8.96581 14.07L0.406792 22.629C-0.135597 23.1714 -0.135597 24.0508 0.406792 24.5932C0.949195 25.1356 1.82858 25.1356 2.37099 24.5932L10.6278 16.3364L16.5647 24.4325C16.8264 24.7892 17.2424 25 17.6847 25H23.6111C24.1344 25 24.6135 24.7058 24.85 24.2389C25.0865 23.7721 25.0407 23.2118 24.7311 22.7897L16.0342 10.93L24.5932 2.37099ZM13.0143 11.509C13.0572 11.5806 13.1071 11.6489 13.164 11.7133L20.8703 22.2222H18.3886L4.12969 2.77778H6.61147L13.0143 11.509Z" fill="white"/>
</svg>
