<svg width="63" height="63" viewBox="0 0 63 63" fill="none" xmlns="http://www.w3.org/2000/svg">
<path d="M14.2871 12.6067V7C14.2871 4.23858 16.5257 2 19.2871 2H43.7129C46.4743 2 48.7129 4.23858 48.7129 7V12.6067M14.2871 12.6067H6C3.23857 12.6067 1 14.8453 1 17.6067V44.0674C1 46.8288 3.23858 49.0674 6 49.0674H14.2871M14.2871 12.6067V49.0674M14.2871 49.0674V56C14.2871 58.7614 16.5257 61 19.2871 61H43.7129C46.4743 61 48.7129 58.7614 48.7129 56V49.0674M48.7129 49.0674H57C59.7614 49.0674 62 46.8288 62 44.0674V17.6067C62 14.8453 59.7614 12.6067 57 12.6067H48.7129M48.7129 49.0674V12.6067M40.8614 46.7753V48.0449C40.8614 50.8064 38.6228 53.0449 35.8614 53.0449H27.1386C24.3772 53.0449 22.1386 50.8064 22.1386 48.0449V46.7753C22.1386 44.0139 24.3772 41.7753 27.1386 41.7753H35.8614C38.6228 41.7753 40.8614 44.0139 40.8614 46.7753Z" stroke="#FFEEB5" stroke-width="2"/>
</svg>
