<svg width="63" height="63" viewBox="0 0 63 63" fill="none" xmlns="http://www.w3.org/2000/svg">
<path d="M7.29289 50.2071C7.68342 50.5976 8.31658 50.5976 8.70711 50.2071L15.0711 43.8431C15.4616 43.4526 15.4616 42.8195 15.0711 42.4289C14.6805 42.0384 14.0474 42.0384 13.6569 42.4289L8 48.0858L2.34315 42.4289C1.95262 42.0384 1.31946 42.0384 0.928932 42.4289C0.538408 42.8195 0.538408 43.4526 0.928932 43.8431L7.29289 50.2071ZM46.5 0H13V2H46.5V0ZM7 6V49.5H9V6H7ZM13 0C9.68629 0 7 2.68629 7 6H9C9 3.79086 10.7909 2 13 2V0Z" fill="#FFEEB5"/>
<path d="M54.2071 14.2929C53.8166 13.9024 53.1834 13.9024 52.7929 14.2929L46.4289 20.6569C46.0384 21.0474 46.0384 21.6805 46.4289 22.0711C46.8194 22.4616 47.4526 22.4616 47.8431 22.0711L53.5 16.4142L59.1568 22.0711C59.5474 22.4616 60.1805 22.4616 60.571 22.0711C60.9616 21.6805 60.9616 21.0474 60.571 20.6568L54.2071 14.2929ZM15 62.5L48.5 62.5L48.5 60.5L15 60.5L15 62.5ZM54.5 56.5L54.5 15L52.5 15L52.5 56.5L54.5 56.5ZM48.5 62.5C51.8137 62.5 54.5 59.8137 54.5 56.5L52.5 56.5C52.5 58.7091 50.7091 60.5 48.5 60.5L48.5 62.5Z" fill="#FFEEB5"/>
</svg>
