<svg width="25" height="25" viewBox="0 0 25 25" fill="none" xmlns="http://www.w3.org/2000/svg">
<g clip-path="url(#clip0_11_137)">
<path d="M17.6373 7.8458C18.0445 7.43862 18.7049 7.43862 19.1121 7.8458C19.5193 8.25312 19.5193 8.91358 19.1121 9.32076L11.2794 17.1538C10.872 17.561 10.2116 17.561 9.80441 17.1538L5.8879 13.2373C5.48072 12.8301 5.48072 12.1696 5.8879 11.7624C6.29522 11.3551 6.95568 11.3551 7.36286 11.7624L10.5419 14.9415L17.6373 7.8458ZM12.4999 0C15.9512 0 19.0765 1.39934 21.3386 3.6614C23.6007 5.92332 25 9.04879 25 12.4999C25 15.9516 23.6008 19.0765 21.3386 21.3386C19.0765 23.6007 15.9512 25 12.4999 25C9.04837 25 5.92332 23.6008 3.6614 21.3386C1.39906 19.0765 0 15.9516 0 12.4999C0 9.04879 1.39934 5.92332 3.6614 3.6614C5.92332 1.39906 9.04837 0 12.4999 0ZM19.8638 5.13622C17.9794 3.25197 15.3758 2.08637 12.4999 2.08637C9.62394 2.08637 7.02033 3.25197 5.13622 5.13622C3.25197 7.02048 2.08637 9.62422 2.08637 12.4999C2.08637 15.3761 3.25197 17.9797 5.13622 19.8638C7.02033 21.748 9.62394 22.9135 12.4999 22.9135C15.3758 22.9135 17.9794 21.748 19.8638 19.8638C21.748 17.9797 22.9135 15.3761 22.9135 12.4999C22.9135 9.62422 21.748 7.02048 19.8638 5.13622Z" fill="url(#paint0_linear_11_137)"/>
</g>
<defs>
<linearGradient id="paint0_linear_11_137" x1="25" y1="0" x2="0" y2="25" gradientUnits="userSpaceOnUse">
<stop stop-color="#FFC300"/>
<stop offset="1" stop-color="#886800"/>
</linearGradient>
<clipPath id="clip0_11_137">
<rect width="25" height="25" fill="white"/>
</clipPath>
</defs>
</svg>
