<svg width="40" height="40" viewBox="0 0 40 40" fill="none" xmlns="http://www.w3.org/2000/svg">
<path d="M34.0087 29.6262C34.0087 29.6909 34.0344 29.753 34.0802 29.7988C34.126 29.8446 34.188 29.8703 34.2528 29.8703C34.3175 29.8703 34.3796 29.8446 34.4253 29.7988C34.4711 29.753 34.4968 29.6909 34.4968 29.6262C34.4968 29.5615 34.4711 29.4994 34.4253 29.4536C34.3796 29.4079 34.3175 29.3822 34.2528 29.3822C34.188 29.3822 34.126 29.4079 34.0802 29.4536C34.0344 29.4994 34.0087 29.5615 34.0087 29.6262ZM28.6209 35.1857C28.6209 35.3145 28.672 35.4379 28.763 35.529C28.8541 35.62 28.9775 35.6711 29.1063 35.6711C29.235 35.6711 29.3585 35.62 29.4495 35.529C29.5405 35.4379 29.5917 35.3145 29.5917 35.1857C29.5917 35.057 29.5405 34.9335 29.4495 34.8425C29.3585 34.7514 29.235 34.7003 29.1063 34.7003C28.9775 34.7003 28.8541 34.7514 28.763 34.8425C28.672 34.9335 28.6209 35.057 28.6209 35.1857ZM21.3584 38.0473C21.3584 38.2407 21.4352 38.4263 21.572 38.5631C21.7088 38.6999 21.8944 38.7767 22.0878 38.7767C22.2813 38.7767 22.4668 38.6999 22.6036 38.5631C22.7404 38.4263 22.8173 38.2407 22.8173 38.0473C22.8173 37.9515 22.7984 37.8566 22.7618 37.7681C22.7251 37.6796 22.6714 37.5992 22.6036 37.5315C22.5359 37.4637 22.4555 37.41 22.367 37.3733C22.2785 37.3367 22.1836 37.3178 22.0878 37.3178C21.992 37.3178 21.8972 37.3367 21.8087 37.3733C21.7202 37.41 21.6398 37.4637 21.572 37.5315C21.5043 37.5992 21.4505 37.6796 21.4139 37.7681C21.3772 37.8566 21.3584 37.9515 21.3584 38.0473ZM13.5407 37.6638C13.5407 37.9212 13.643 38.1682 13.8251 38.3502C14.0071 38.5323 14.2541 38.6346 14.5116 38.6346C14.769 38.6346 15.016 38.5323 15.198 38.3502C15.3801 38.1682 15.4824 37.9212 15.4824 37.6638C15.4824 37.4063 15.3801 37.1593 15.198 36.9773C15.016 36.7952 14.769 36.6929 14.5116 36.6929C14.2541 36.6929 14.0071 36.7952 13.8251 36.9773C13.643 37.1593 13.5407 37.4063 13.5407 37.6638ZM6.60543 34.1049C6.60543 34.2645 6.63685 34.4224 6.69791 34.5698C6.75896 34.7172 6.84845 34.8512 6.96126 34.964C7.07407 35.0768 7.208 35.1663 7.3554 35.2273C7.5028 35.2884 7.66077 35.3198 7.82031 35.3198C7.97986 35.3198 8.13783 35.2884 8.28523 35.2273C8.43263 35.1663 8.56656 35.0768 8.67937 34.964C8.79218 34.8512 8.88167 34.7172 8.94272 34.5698C9.00378 34.4224 9.0352 34.2645 9.0352 34.1049C9.0352 33.9454 9.00378 33.7874 8.94272 33.64C8.88167 33.4926 8.79218 33.3587 8.67937 33.2459C8.56656 33.1331 8.43263 33.0436 8.28523 32.9825C8.13783 32.9215 7.97986 32.89 7.82031 32.89C7.66077 32.89 7.5028 32.9215 7.3554 32.9825C7.208 33.0436 7.07407 33.1331 6.96126 33.2459C6.84845 33.3587 6.75896 33.4926 6.69791 33.64C6.63685 33.7874 6.60543 33.9454 6.60543 34.1049ZM1.80221 28.0546C1.80221 28.4416 1.95592 28.8127 2.22952 29.0863C2.50313 29.3599 2.87421 29.5136 3.26115 29.5136C3.64808 29.5136 4.01917 29.3599 4.29277 29.0863C4.56637 28.8127 4.72008 28.4416 4.72008 28.0546C4.72008 27.6677 4.56637 27.2966 4.29277 27.023C4.01917 26.7494 3.64808 26.5957 3.26115 26.5957C2.87421 26.5957 2.50313 26.7494 2.22952 27.023C1.95592 27.2966 1.80221 27.6677 1.80221 28.0546ZM0 20.6259C-3.32723e-09 20.8492 0.0439796 21.0703 0.129428 21.2766C0.214876 21.4828 0.340119 21.6703 0.498007 21.8282C0.655895 21.9861 0.843334 22.1113 1.04962 22.1968C1.25591 22.2822 1.47702 22.3262 1.7003 22.3262C1.92359 22.3262 2.14469 22.2822 2.35098 22.1968C2.55727 22.1113 2.74471 21.9861 2.9026 21.8282C3.06048 21.6703 3.18573 21.4828 3.27118 21.2766C3.35662 21.0703 3.4006 20.8492 3.4006 20.6259C3.4006 20.1749 3.22146 19.7425 2.9026 19.4236C2.58373 19.1047 2.15125 18.9256 1.7003 18.9256C1.24935 18.9256 0.816875 19.1047 0.498007 19.4236C0.179139 19.7425 0 20.1749 0 20.6259ZM1.48307 13.2454C1.48307 13.5007 1.53336 13.7536 1.63108 13.9895C1.72879 14.2254 1.87201 14.4397 2.05256 14.6203C2.23311 14.8008 2.44745 14.944 2.68335 15.0417C2.91925 15.1394 3.17209 15.1897 3.42742 15.1897C3.9431 15.1897 4.43765 14.9849 4.80229 14.6203C5.16692 14.2556 5.37177 13.7611 5.37177 13.2454C5.37177 12.7297 5.16692 12.2352 4.80229 11.8705C4.43765 11.5059 3.9431 11.301 3.42742 11.301C2.91175 11.301 2.41719 11.5059 2.05256 11.8705C1.68792 12.2352 1.48307 12.7297 1.48307 13.2454ZM5.93228 7.29433C5.93228 7.58172 5.98889 7.86629 6.09887 8.1318C6.20884 8.39731 6.37004 8.63856 6.57325 8.84177C6.77646 9.04498 7.01771 9.20618 7.28322 9.31615C7.54873 9.42613 7.8333 9.48273 8.12068 9.48273C8.40807 9.48273 8.69264 9.42613 8.95815 9.31615C9.22366 9.20618 9.4649 9.04498 9.66812 8.84177C9.87133 8.63856 10.0325 8.39731 10.1425 8.1318C10.2525 7.86629 10.3091 7.58172 10.3091 7.29433C10.3091 6.71393 10.0785 6.15731 9.66812 5.7469C9.25771 5.3365 8.70108 5.10593 8.12068 5.10593C7.54028 5.10593 6.98366 5.3365 6.57325 5.7469C6.16285 6.15731 5.93228 6.71393 5.93228 7.29433ZM12.4653 3.88569C12.4653 4.20477 12.5282 4.52072 12.6503 4.81552C12.7724 5.11031 12.9513 5.37817 13.177 5.60379C13.4026 5.82942 13.6704 6.00839 13.9652 6.1305C14.26 6.25261 14.576 6.31545 14.8951 6.31545C15.5395 6.31545 16.1575 6.05946 16.6132 5.60379C17.0688 5.14812 17.3248 4.5301 17.3248 3.88569C17.3248 3.24127 17.0688 2.62325 16.6132 2.16758C16.1575 1.71191 15.5395 1.45592 14.8951 1.45592C14.2507 1.45592 13.6326 1.71191 13.177 2.16758C12.7213 2.62325 12.4653 3.24127 12.4653 3.88569ZM19.8029 3.67382C19.8029 4.38296 20.0846 5.06305 20.586 5.56449C21.0875 6.06593 21.7676 6.34764 22.4767 6.34764C23.1858 6.34764 23.8659 6.06593 24.3674 5.56449C24.8688 5.06305 25.1505 4.38296 25.1505 3.67382C25.1505 2.96468 24.8688 2.28458 24.3674 1.78314C23.8659 1.28171 23.1858 1 22.4767 1C21.7676 1 21.0875 1.28171 20.586 1.78314C20.0846 2.28458 19.8029 2.96468 19.8029 3.67382ZM26.521 6.69628C26.521 7.46943 26.8281 8.21092 27.3748 8.75763C27.9215 9.30433 28.663 9.61146 29.4361 9.61146C30.2093 9.61146 30.9508 9.30433 31.4975 8.75763C32.0442 8.21092 32.3513 7.46943 32.3513 6.69628C32.3513 5.92312 32.0442 5.18163 31.4975 4.63493C30.9508 4.08823 30.2093 3.78109 29.4361 3.78109C28.663 3.78109 27.9215 4.08823 27.3748 4.63493C26.8281 5.18163 26.521 5.92312 26.521 6.69628ZM31.2947 12.3738C31.2947 12.7887 31.3764 13.1995 31.5352 13.5828C31.6939 13.9661 31.9266 14.3143 32.22 14.6077C32.5134 14.9011 32.8616 15.1338 33.2449 15.2925C33.6282 15.4513 34.039 15.533 34.4539 15.533C34.8688 15.533 35.2796 15.4513 35.6629 15.2925C36.0462 15.1338 36.3945 14.9011 36.6878 14.6077C36.9812 14.3143 37.2139 13.9661 37.3727 13.5828C37.5314 13.1995 37.6131 12.7887 37.6131 12.3738C37.6131 11.9589 37.5314 11.5481 37.3727 11.1648C37.2139 10.7815 36.9812 10.4332 36.6878 10.1399C36.3945 9.84651 36.0462 9.6138 35.6629 9.45503C35.2796 9.29626 34.8688 9.21455 34.4539 9.21455C34.039 9.21455 33.6282 9.29626 33.2449 9.45503C32.8616 9.6138 32.5134 9.84651 32.22 10.1399C31.9266 10.4332 31.6939 10.7815 31.5352 11.1648C31.3764 11.5481 31.2947 11.9589 31.2947 12.3738ZM33.1934 19.7275C33.1934 20.1744 33.2815 20.6169 33.4525 21.0298C33.6235 21.4427 33.8742 21.8179 34.1902 22.1339C34.5063 22.45 34.8814 22.7006 35.2943 22.8717C35.7072 23.0427 36.1498 23.1307 36.5967 23.1307C37.4993 23.1307 38.365 22.7722 39.0032 22.1339C39.6414 21.4957 40 20.6301 40 19.7275C40 18.8248 39.6414 17.9592 39.0032 17.321C38.365 16.6827 37.4993 16.3242 36.5967 16.3242C35.6941 16.3242 34.8285 16.6827 34.1902 17.321C33.552 17.9592 33.1934 18.8248 33.1934 19.7275Z" fill="#7FFF8C"/>
</svg>
