<svg width="445" height="433" viewBox="0 0 445 433" fill="none" xmlns="http://www.w3.org/2000/svg">
<path d="M131.068 157.615C159.292 157.615 189.983 124.458 199.617 83.5564C209.251 42.6553 194.18 9.49829 165.956 9.49829C137.731 9.49829 107.041 42.6553 97.4069 83.5564C87.7729 124.458 102.843 157.615 131.068 157.615Z" fill="#9B57AE" stroke="#570071" stroke-width="0.969866" stroke-miterlimit="1.5" stroke-linecap="round" stroke-linejoin="round"/>
<path d="M117.743 154.11C146.758 154.11 178.308 120.024 188.212 77.9766C198.116 35.9294 182.623 1.84338 153.608 1.84338C124.593 1.84338 93.0422 35.9294 83.1383 77.9766C73.2344 120.024 88.7272 154.11 117.743 154.11Z" fill="#D4A0E3" stroke="#570071" stroke-width="0.964879" stroke-miterlimit="1.5" stroke-linecap="round" stroke-linejoin="round"/>
<path d="M117.396 142.758C139.78 142.758 164.758 113.755 173.186 77.9767C181.613 42.1987 170.299 13.1949 147.914 13.1949C125.529 13.1949 100.551 42.1987 92.1238 77.9767C83.6964 113.755 95.011 142.758 117.396 142.758Z" fill="#9B57AE"/>
<mask id="mask0_56_1115" style="mask-type:luminance" maskUnits="userSpaceOnUse" x="89" y="13" width="87" height="130">
<path d="M117.407 142.758C139.797 142.758 164.775 113.755 173.197 77.9767C181.618 42.1987 170.294 13.1949 147.903 13.1949C125.513 13.1949 100.535 42.1987 92.1133 77.9767C83.6918 113.755 95.016 142.758 117.407 142.758Z" fill="white"/>
</mask>
<g mask="url(#mask0_56_1115)">
<path d="M124.717 144.974C147.109 144.974 172.088 115.97 180.507 80.1924C188.927 44.4144 177.6 15.4106 155.207 15.4106C132.815 15.4106 107.837 44.4144 99.4173 80.1924C90.9977 115.97 102.325 144.974 124.717 144.974Z" fill="#9B57AE"/>
<mask id="mask1_56_1115" style="mask-type:luminance" maskUnits="userSpaceOnUse" x="96" y="15" width="88" height="130">
<path d="M124.721 144.974C147.116 144.974 172.094 115.97 180.511 80.1924C188.929 44.4144 177.598 15.4106 155.203 15.4106C132.809 15.4106 107.831 44.4144 99.4133 80.1924C90.9959 115.97 102.327 144.974 124.721 144.974Z" fill="white"/>
</mask>
<g mask="url(#mask1_56_1115)">
<path d="M125.664 132.894C148.059 132.894 173.037 103.891 181.454 68.1126C189.871 32.3346 178.539 3.33081 156.143 3.33081C133.748 3.33081 108.77 32.3346 100.353 68.1126C91.9366 103.891 103.268 132.894 125.664 132.894Z" fill="#D4A0E3"/>
</g>
<path d="M124.717 144.974C147.109 144.974 172.088 115.97 180.507 80.1924C188.927 44.4144 177.6 15.4106 155.207 15.4106C132.815 15.4106 107.837 44.4144 99.4173 80.1924C90.9977 115.97 102.325 144.974 124.717 144.974Z" stroke="#570071" stroke-width="1.00325" stroke-miterlimit="1.5" stroke-linecap="round" stroke-linejoin="round"/>
</g>
<path d="M117.396 142.758C139.78 142.758 164.758 113.755 173.186 77.9767C181.613 42.1987 170.299 13.1949 147.914 13.1949C125.529 13.1949 100.551 42.1987 92.1238 77.9767C83.6964 113.755 95.011 142.758 117.396 142.758Z" stroke="#570071" stroke-width="1.00325" stroke-miterlimit="1.5" stroke-linecap="round" stroke-linejoin="round"/>
<path fill-rule="evenodd" clip-rule="evenodd" d="M128.224 39.6837L129.435 40.8046C133.325 44.4086 134.506 50.0819 132.378 54.9379C126.056 69.357 113.523 97.9482 113.523 97.9482L112.311 96.8259C108.422 93.2234 107.241 87.55 109.369 82.694C115.69 68.2749 128.224 39.6837 128.224 39.6837Z" stroke="#570071" stroke-width="1.21511" stroke-miterlimit="1.5" stroke-linecap="round" stroke-linejoin="round"/>
<path fill-rule="evenodd" clip-rule="evenodd" d="M136.108 60.517C137.079 58.3011 139.062 56.6906 141.431 56.1987C143.798 55.7054 146.259 56.3884 148.035 58.0335L129.844 99.5346C128.871 101.752 126.888 103.36 124.521 103.853C122.151 104.347 119.691 103.662 117.915 102.017L136.108 60.517Z" stroke="#570071" stroke-width="1.21511" stroke-miterlimit="1.5" stroke-linecap="round" stroke-linejoin="round"/>
<path fill-rule="evenodd" clip-rule="evenodd" d="M151.785 61.5073L152.995 62.6282C156.886 66.2322 158.067 71.9056 155.939 76.7616C149.618 91.1807 137.084 119.772 137.084 119.772L135.872 118.649C131.983 115.047 130.802 109.374 132.93 104.518C139.251 90.0984 151.785 61.5073 151.785 61.5073Z" stroke="#570071" stroke-width="1.21511" stroke-miterlimit="1.5" stroke-linecap="round" stroke-linejoin="round"/>
<path fill-rule="evenodd" clip-rule="evenodd" d="M169.988 0L171.799 6.35465L178.207 4.74824L173.614 9.4965L178.207 14.2448L171.799 12.6384L169.988 18.993L168.177 12.6384L161.772 14.2448L166.365 9.4965L161.772 4.74824L168.177 6.35465L169.988 0Z" fill="white"/>
<path d="M22.5987 254.94C28.4733 271.087 53.6437 281.801 78.8181 278.869C103.993 275.938 119.638 260.473 113.763 244.326C107.889 228.179 82.7184 217.466 57.544 220.397C32.3695 223.328 16.724 238.794 22.5987 254.94Z" fill="#878787" stroke="#6A6A6A" stroke-width="0.96383" stroke-miterlimit="1.5" stroke-linecap="round" stroke-linejoin="round"/>
<path d="M21.8074 246.59C27.8467 263.189 53.7223 274.203 79.6022 271.19C105.482 268.176 121.566 252.277 115.527 235.678C109.487 219.079 83.6117 208.066 57.7319 211.079C31.852 214.092 15.7681 229.991 21.8074 246.59Z" fill="#B9B9B9" stroke="#6A6A6A" stroke-width="0.965857" stroke-miterlimit="1.5" stroke-linecap="round" stroke-linejoin="round"/>
<path d="M28.1655 244.048C32.8246 256.853 54.453 265.156 76.4739 262.592C98.4947 260.028 112.569 247.569 107.91 234.763C103.251 221.958 81.6226 213.655 59.6017 216.219C37.5808 218.783 23.5064 231.242 28.1655 244.048Z" fill="#B9B9B9"/>
<mask id="mask2_56_1115" style="mask-type:luminance" maskUnits="userSpaceOnUse" x="27" y="215" width="82" height="49">
<path d="M28.1646 244.049C32.8232 256.854 54.4516 265.156 76.473 262.591C98.4945 260.027 112.57 247.568 107.911 234.763C103.253 221.958 81.6243 213.656 59.6029 216.22C37.5815 218.784 23.5061 231.243 28.1646 244.049Z" fill="white"/>
</mask>
<g mask="url(#mask2_56_1115)">
<path d="M28.4316 248.688C33.0901 261.493 54.7185 269.795 76.74 267.231C98.7616 264.667 112.837 252.207 108.179 239.402C103.52 226.597 81.8919 218.296 59.8704 220.86C37.8488 223.424 23.7732 235.883 28.4316 248.688Z" fill="#878787"/>
<mask id="mask3_56_1115" style="mask-type:luminance" maskUnits="userSpaceOnUse" x="27" y="220" width="83" height="48">
<path d="M28.4313 248.688C33.0897 261.493 54.7181 269.795 76.7397 267.231C98.7614 264.666 112.837 252.207 108.179 239.402C103.52 226.597 81.892 218.296 59.8703 220.86C37.8487 223.424 23.773 235.883 28.4313 248.688Z" fill="white"/>
</mask>
<g mask="url(#mask3_56_1115)">
<path d="M35.4658 246.736C40.1224 259.539 61.7508 267.839 83.7741 265.274C105.797 262.708 119.876 250.249 115.219 237.445C110.563 224.641 88.9342 216.342 66.9109 218.907C44.8875 221.473 30.8091 233.932 35.4658 246.736Z" fill="#B9B9B9"/>
</g>
<path d="M28.4316 248.688C33.0901 261.493 54.7185 269.795 76.74 267.231C98.7616 264.667 112.837 252.207 108.179 239.402C103.52 226.597 81.8919 218.296 59.8704 220.86C37.8488 223.424 23.7732 235.883 28.4316 248.688Z" stroke="#6A6A6A" stroke-width="1.00517" stroke-miterlimit="1.5" stroke-linecap="round" stroke-linejoin="round"/>
</g>
<path d="M28.1655 244.048C32.8246 256.853 54.453 265.156 76.4739 262.592C98.4947 260.028 112.569 247.569 107.91 234.763C103.251 221.958 81.6226 213.655 59.6017 216.219C37.5808 218.783 23.5064 231.242 28.1655 244.048Z" stroke="#6A6A6A" stroke-width="1.00517" stroke-miterlimit="1.5" stroke-linecap="round" stroke-linejoin="round"/>
<path fill-rule="evenodd" clip-rule="evenodd" d="M90.0464 239.707L68.1487 227.084L62.015 243.786L72.6543 257.097L90.0464 239.707Z" stroke="#6A6A6A" stroke-width="0.999912" stroke-miterlimit="1.5" stroke-linecap="round" stroke-linejoin="round"/>
<path fill-rule="evenodd" clip-rule="evenodd" d="M60.5755 233.817L56.7414 244.549L63.2679 252.396L47.1628 245.943L60.5755 233.817Z" stroke="#6A6A6A" stroke-width="0.999912" stroke-miterlimit="1.5" stroke-linecap="round" stroke-linejoin="round"/>
<path fill-rule="evenodd" clip-rule="evenodd" d="M20.5458 228.289L22.6641 235.726L30.1631 233.844L24.787 239.403L30.1609 244.959L22.6627 243.08L20.5414 250.518L18.423 243.081L10.9278 244.963L16.3039 239.404L10.93 233.848L18.4245 235.727L20.5458 228.289Z" fill="white"/>
<path d="M258.426 382.651C249.205 361.074 263.074 327.37 289.403 307.371C315.733 287.372 344.552 288.651 353.773 310.228C362.994 331.805 349.126 365.509 322.796 385.508C296.467 405.507 267.647 404.228 258.426 382.651Z" fill="#A8EDFF" stroke="#004D61" stroke-width="0.951168" stroke-miterlimit="1.5" stroke-linecap="round" stroke-linejoin="round"/>
<path d="M265.309 391.761C255.829 369.58 270.086 334.931 297.154 314.372C324.221 293.813 353.848 295.127 363.327 317.309C372.807 339.49 358.549 374.139 331.482 394.698C304.415 415.257 274.788 413.943 265.309 391.761Z" fill="#5BDDFF" stroke="#004D61" stroke-width="0.955597" stroke-miterlimit="1.5" stroke-linecap="round" stroke-linejoin="round"/>
<path d="M273.604 388.52C266.291 371.408 279.033 343.355 302.064 325.861C325.095 308.367 349.694 308.058 357.007 325.17C364.32 342.282 351.578 370.335 328.547 387.829C305.516 405.323 280.917 405.632 273.604 388.52Z" fill="#0C7A96"/>
<mask id="mask4_56_1115" style="mask-type:luminance" maskUnits="userSpaceOnUse" x="271" y="312" width="89" height="90">
<path d="M273.604 388.521C266.291 371.409 279.033 343.355 302.064 325.861C325.095 308.367 349.694 308.058 357.007 325.169C364.32 342.281 351.578 370.335 328.547 387.829C305.515 405.323 280.917 405.633 273.604 388.521Z" fill="white"/>
</mask>
<g mask="url(#mask4_56_1115)">
<path d="M269.618 383.615C262.305 366.504 275.047 338.45 298.078 320.956C321.109 303.462 345.708 303.152 353.021 320.264C360.334 337.376 347.592 365.429 324.561 382.923C301.529 400.417 276.931 400.727 269.618 383.615Z" fill="#0C7A96"/>
<mask id="mask5_56_1115" style="mask-type:luminance" maskUnits="userSpaceOnUse" x="267" y="307" width="89" height="90">
<path d="M269.618 383.615C262.305 366.504 275.047 338.45 298.078 320.956C321.109 303.462 345.708 303.152 353.021 320.264C360.334 337.376 347.592 365.429 324.561 382.923C301.529 400.417 276.931 400.727 269.618 383.615Z" fill="white"/>
</mask>
<g mask="url(#mask5_56_1115)">
<path d="M278.015 379.168C270.702 362.056 283.445 334.003 306.476 316.509C329.507 299.015 354.106 298.705 361.419 315.817C368.732 332.928 355.99 360.982 332.958 378.476C309.927 395.97 285.328 396.28 278.015 379.168Z" fill="#5BDDFF"/>
</g>
<path d="M269.618 383.615C262.305 366.504 275.047 338.45 298.078 320.956C321.109 303.462 345.708 303.152 353.021 320.264C360.334 337.376 347.592 365.429 324.561 382.923C301.529 400.417 276.931 400.727 269.618 383.615Z" stroke="#004D61" stroke-width="0.990299" stroke-miterlimit="1.5" stroke-linecap="round" stroke-linejoin="round"/>
</g>
<path d="M273.604 388.52C266.291 371.408 279.033 343.355 302.064 325.861C325.095 308.367 349.694 308.058 357.007 325.17C364.32 342.282 351.578 370.335 328.547 387.829C305.516 405.323 280.917 405.632 273.604 388.52Z" stroke="#004D61" stroke-width="0.990299" stroke-miterlimit="1.5" stroke-linecap="round" stroke-linejoin="round"/>
<path fill-rule="evenodd" clip-rule="evenodd" d="M301.91 335.071C302.377 333.09 303.767 331.457 305.647 330.683C307.524 329.908 309.662 330.086 311.384 331.16C318.725 335.741 330.024 342.791 338.43 348.037C340.486 349.32 341.625 351.669 341.36 354.081C341.094 356.492 339.47 358.538 337.183 359.345C320.394 365.256 292.485 375.086 292.485 375.086C292.485 375.086 298.626 349.014 301.91 335.071Z" stroke="#004D61" stroke-width="1.13765" stroke-miterlimit="1.5" stroke-linecap="round" stroke-linejoin="round"/>
<path d="M326.745 340.75L292.487 375.083" stroke="#004D61" stroke-width="1.13765" stroke-miterlimit="1.5" stroke-linecap="round" stroke-linejoin="round"/>
<path fill-rule="evenodd" clip-rule="evenodd" d="M294.728 303.09L300.286 308.462L305.837 303.072L303.966 310.578L311.401 312.69L303.968 314.826L305.855 322.325L300.297 316.953L294.749 322.341L296.621 314.835L289.186 312.723L296.616 310.589L294.728 303.09Z" fill="white"/>
<path d="M380.795 216.447C357.407 214.647 333.962 186.758 328.43 154.154C322.898 121.551 337.373 96.5795 360.761 98.3794C384.15 100.179 407.595 128.069 413.127 160.672C418.659 193.276 404.184 218.247 380.795 216.447Z" fill="#F09C00" stroke="#D3830B" stroke-width="0.951168" stroke-miterlimit="1.5" stroke-linecap="round" stroke-linejoin="round"/>
<path d="M392.049 214.555C368.005 212.704 343.904 184.033 338.216 150.516C332.529 116.999 347.41 91.3282 371.454 93.1785C395.498 95.0289 419.599 123.7 425.287 157.217C430.974 190.734 416.093 216.405 392.049 214.555Z" fill="#FBDF02" stroke="#D3830B" stroke-width="0.955596" stroke-miterlimit="1.5" stroke-linecap="round" stroke-linejoin="round"/>
<path d="M393.017 205.699C374.468 204.271 355.508 179.994 350.669 151.474C345.829 122.954 356.943 100.992 375.492 102.419C394.042 103.847 413.002 128.124 417.841 156.644C422.68 185.164 411.566 207.126 393.017 205.699Z" fill="#FBDF02"/>
<mask id="mask6_56_1115" style="mask-type:luminance" maskUnits="userSpaceOnUse" x="349" y="102" width="70" height="104">
<path d="M393.009 205.696C374.456 204.267 355.496 179.99 350.661 151.472C345.826 122.953 356.947 100.993 375.5 102.422C394.053 103.851 413.013 128.128 417.848 156.646C422.683 185.165 411.563 207.125 393.009 205.696Z" fill="white"/>
</mask>
<g mask="url(#mask6_56_1115)">
<path d="M386.818 206.963C368.264 205.533 349.303 181.256 344.47 152.738C339.636 124.22 350.759 102.261 369.313 103.69C387.868 105.12 406.828 129.397 411.662 157.915C416.496 186.433 405.373 208.392 386.818 206.963Z" fill="#F09C00"/>
<mask id="mask7_56_1115" style="mask-type:luminance" maskUnits="userSpaceOnUse" x="343" y="103" width="70" height="105">
<path d="M386.815 206.962C368.258 205.532 349.298 181.255 344.466 152.738C339.634 124.221 350.76 102.262 369.317 103.692C387.873 105.122 406.833 129.4 411.665 157.917C416.497 186.434 405.371 208.392 386.815 206.962Z" fill="white"/>
</mask>
<g mask="url(#mask7_56_1115)">
<path d="M386.758 197.453C368.201 196.022 349.241 171.745 344.41 143.228C339.579 114.711 350.706 92.7531 369.263 94.1835C387.82 95.6138 406.78 119.891 411.611 148.408C416.442 176.925 405.316 198.883 386.758 197.453Z" fill="#FBDF02"/>
</g>
<path d="M386.818 206.963C368.264 205.533 349.303 181.256 344.47 152.738C339.636 124.22 350.759 102.261 369.313 103.69C387.868 105.12 406.828 129.397 411.662 157.915C416.496 186.433 405.373 208.392 386.818 206.963Z" stroke="#D3830B" stroke-width="0.990299" stroke-miterlimit="1.5" stroke-linecap="round" stroke-linejoin="round"/>
</g>
<path d="M393.017 205.699C374.468 204.271 355.508 179.994 350.669 151.474C345.829 122.954 356.943 100.992 375.492 102.419C394.042 103.847 413.002 128.124 417.841 156.644C422.68 185.164 411.566 207.126 393.017 205.699Z" stroke="#D3830B" stroke-width="0.990299" stroke-miterlimit="1.5" stroke-linecap="round" stroke-linejoin="round"/>
<path fill-rule="evenodd" clip-rule="evenodd" d="M369.255 124.251L374.929 124.251L376.585 130.901L380.013 130.901L378.375 124.326L383.987 124.326L385.786 131.551C385.786 131.551 396.801 133.22 399.165 142.558C401.528 151.895 394.907 153.615 394.907 153.615C394.907 153.615 404.224 156.022 406.371 164.643C408.519 173.265 401.921 177.701 397.379 177.701L398.461 182.045L392.73 182.045L391.769 178.187L388.582 178.187L389.543 182.044L383.537 182.044L382.558 178.114L370.332 178.113L369.033 172.897L373.8 171.736L365.182 137.133L359.923 135.702L358.736 130.938L370.801 130.938L369.255 124.251Z" stroke="#D3830B" stroke-width="0.896647" stroke-miterlimit="1.5" stroke-linecap="round" stroke-linejoin="round"/>
<path fill-rule="evenodd" clip-rule="evenodd" d="M373.433 137.068L376.657 150.014L388.349 150.014C388.349 150.014 392.323 148.565 391.006 143.278C389.69 137.992 384.35 136.981 382.841 136.981C381.333 136.981 373.433 137.068 373.433 137.068Z" stroke="#D3830B" stroke-width="0.896647" stroke-miterlimit="1.5" stroke-linecap="round" stroke-linejoin="round"/>
<path fill-rule="evenodd" clip-rule="evenodd" d="M378.347 156.79L382.001 171.464L393.673 171.465C393.673 171.465 399.64 170.668 397.956 163.908C396.273 157.148 389.67 156.443 387.598 156.443C385.525 156.443 378.347 156.79 378.347 156.79Z" stroke="#D3830B" stroke-width="0.896647" stroke-miterlimit="1.5" stroke-linecap="round" stroke-linejoin="round"/>
<path fill-rule="evenodd" clip-rule="evenodd" d="M357.709 91.1032L357.274 98.8251L364.977 99.5144L358.076 102.997L361.333 110.013L354.863 105.772L350.422 112.1L350.857 104.378L343.158 103.69L350.059 100.208L346.801 93.1916L353.268 97.4314L357.709 91.1032Z" fill="white"/>
</svg>
