<svg width="376" height="363" viewBox="0 0 376 363" fill="none" xmlns="http://www.w3.org/2000/svg">
<g clip-path="url(#clip0_54_686)">
<path d="M330.685 170.766C336.216 175.423 347.652 174.052 356.226 167.706C364.801 161.359 367.268 152.44 361.737 147.784C356.206 143.128 344.77 144.498 336.195 150.844C327.621 157.191 325.154 166.11 330.685 170.766Z" fill="#24981C" stroke="#3B7737" stroke-width="0.78076" stroke-miterlimit="1.5" stroke-linecap="round" stroke-linejoin="round"/>
<path d="M328.646 167.887C334.332 172.674 346.088 171.265 354.903 164.741C363.718 158.217 366.254 149.048 360.568 144.261C354.881 139.474 343.126 140.883 334.31 147.407C325.495 153.931 322.959 163.101 328.646 167.887Z" fill="#63DC60" stroke="#3B7737" stroke-width="0.78294" stroke-miterlimit="1.5" stroke-linecap="round" stroke-linejoin="round"/>
<path d="M330.433 165.628C334.82 169.32 344.457 167.814 351.958 162.262C359.458 156.711 361.983 149.217 357.596 145.524C353.209 141.831 343.572 143.338 336.071 148.89C328.571 154.441 326.047 161.935 330.433 165.628Z" fill="#25C51A"/>
<mask id="mask0_54_686" style="mask-type:luminance" maskUnits="userSpaceOnUse" x="328" y="143" width="32" height="25">
<path d="M330.433 165.628C334.82 169.32 344.457 167.814 351.958 162.262C359.458 156.711 361.983 149.217 357.596 145.524C353.209 141.831 343.572 143.338 336.071 148.89C328.571 154.441 326.047 161.935 330.433 165.628Z" fill="white"/>
</mask>
<g mask="url(#mask0_54_686)">
<path d="M331.504 167.263C335.891 170.956 345.527 169.449 353.028 163.898C360.529 158.346 363.053 150.852 358.666 147.16C354.279 143.467 344.642 144.974 337.142 150.525C329.641 156.077 327.117 163.571 331.504 167.263Z" fill="#24981C"/>
<mask id="mask1_54_686" style="mask-type:luminance" maskUnits="userSpaceOnUse" x="329" y="145" width="32" height="25">
<path d="M331.504 167.263C335.891 170.956 345.527 169.449 353.028 163.898C360.529 158.346 363.053 150.852 358.666 147.16C354.279 143.467 344.642 144.974 337.142 150.525C329.641 156.077 327.117 163.571 331.504 167.263Z" fill="white"/>
</mask>
<g mask="url(#mask1_54_686)">
<path d="M333.663 165.075C338.049 168.767 347.686 167.261 355.187 161.709C362.688 156.158 365.212 148.664 360.825 144.971C356.438 141.278 346.801 142.785 339.301 148.337C331.8 153.888 329.276 161.382 333.663 165.075Z" fill="#63DC60"/>
</g>
<path d="M331.504 167.263C335.891 170.956 345.527 169.449 353.028 163.898C360.529 158.346 363.053 150.852 358.666 147.16C354.279 143.467 344.642 144.974 337.142 150.525C329.641 156.077 327.117 163.571 331.504 167.263Z" stroke="#3B7737" stroke-width="0.813878" stroke-miterlimit="1.5" stroke-linecap="round" stroke-linejoin="round"/>
</g>
<path d="M330.433 165.628C334.82 169.32 344.457 167.814 351.958 162.262C359.458 156.711 361.983 149.217 357.596 145.524C353.209 141.831 343.572 143.338 336.071 148.89C328.571 154.441 326.047 161.935 330.433 165.628Z" stroke="#3B7737" stroke-width="0.813878" stroke-miterlimit="1.5" stroke-linecap="round" stroke-linejoin="round"/>
<path d="M131.521 173.356C130.191 178.157 134.33 184.925 140.767 188.472C147.204 192.02 153.501 191.005 154.831 186.204C156.162 181.403 152.023 174.635 145.586 171.087C139.149 167.539 132.852 168.555 131.521 173.356Z" fill="#CB553F" stroke="#BC3030" stroke-width="0.481854" stroke-miterlimit="1.5" stroke-linecap="round" stroke-linejoin="round"/>
<path d="M132.74 171.253C131.372 176.188 135.628 183.146 142.245 186.793C148.862 190.44 155.335 189.396 156.703 184.461C158.071 179.525 153.816 172.568 147.198 168.92C140.581 165.273 134.108 166.317 132.74 171.253Z" fill="#FB6448" stroke="#BC3030" stroke-width="0.481784" stroke-miterlimit="1.5" stroke-linecap="round" stroke-linejoin="round"/>
<path d="M134.669 171.723C133.613 175.531 137.322 181.133 142.953 184.237C148.584 187.34 154.004 186.77 155.059 182.962C156.114 179.155 152.405 173.552 146.775 170.449C141.144 167.345 135.724 167.916 134.669 171.723Z" fill="#FB6448"/>
<mask id="mask2_54_686" style="mask-type:luminance" maskUnits="userSpaceOnUse" x="134" y="168" width="22" height="19">
<path d="M134.669 171.724C133.613 175.532 137.322 181.134 142.953 184.237C148.584 187.341 154.004 186.77 155.059 182.962C156.114 179.155 152.405 173.552 146.775 170.449C141.144 167.346 135.724 167.917 134.669 171.724Z" fill="white"/>
</mask>
<g mask="url(#mask2_54_686)">
<path d="M133.951 172.864C132.896 176.672 136.604 182.274 142.235 185.377C147.866 188.48 153.286 187.909 154.341 184.102C155.396 180.294 151.688 174.692 146.057 171.588C140.426 168.485 135.006 169.056 133.951 172.864Z" fill="#CB553F"/>
<mask id="mask3_54_686" style="mask-type:luminance" maskUnits="userSpaceOnUse" x="133" y="169" width="22" height="19">
<path d="M133.951 172.864C132.896 176.671 136.604 182.274 142.235 185.377C147.865 188.48 153.285 187.909 154.341 184.101C155.396 180.294 151.688 174.691 146.057 171.588C140.427 168.485 135.007 169.056 133.951 172.864Z" fill="white"/>
</mask>
<g mask="url(#mask3_54_686)">
<path d="M135.942 173.587C134.887 177.395 138.596 182.997 144.226 186.1C149.857 189.204 155.277 188.633 156.332 184.825C157.388 181.018 153.679 175.415 148.048 172.312C142.417 169.209 136.997 169.78 135.942 173.587Z" fill="#FB6448"/>
</g>
<path d="M133.951 172.864C132.896 176.672 136.604 182.274 142.235 185.377C147.866 188.48 153.286 187.909 154.341 184.102C155.396 180.294 151.688 174.692 146.057 171.588C140.426 168.485 135.006 169.056 133.951 172.864Z" stroke="#BC3030" stroke-width="0.500303" stroke-miterlimit="1.5" stroke-linecap="round" stroke-linejoin="round"/>
</g>
<path d="M134.669 171.723C133.613 175.531 137.322 181.133 142.953 184.237C148.584 187.34 154.004 186.77 155.059 182.962C156.114 179.155 152.405 173.552 146.775 170.449C141.144 167.345 135.724 167.916 134.669 171.723Z" stroke="#BC3030" stroke-width="0.500303" stroke-miterlimit="1.5" stroke-linecap="round" stroke-linejoin="round"/>
<path d="M21.482 95.6871C16.6182 94.6089 10.0725 99.0945 6.86178 105.706C3.65107 112.318 4.99117 118.551 9.85498 119.629C14.7188 120.708 21.2645 116.222 24.4752 109.61C27.6859 102.999 26.3458 96.7653 21.482 95.6871Z" fill="#C36F00" stroke="#985904" stroke-width="0.481854" stroke-miterlimit="1.5" stroke-linecap="round" stroke-linejoin="round"/>
<path d="M23.6464 96.7944C18.6464 95.686 11.9173 100.297 8.61658 107.094C5.31591 113.891 6.69356 120.299 11.6937 121.408C16.6938 122.516 23.4229 117.905 26.7235 111.108C30.0242 104.311 28.6465 97.9028 23.6464 96.7944Z" fill="#FF9200" stroke="#985904" stroke-width="0.481784" stroke-miterlimit="1.5" stroke-linecap="round" stroke-linejoin="round"/>
<path d="M23.2759 98.7448C19.4186 97.8897 14.0148 101.885 11.2063 107.668C8.39776 113.451 9.24802 118.833 13.1054 119.688C16.9628 120.543 22.3665 116.548 25.1751 110.765C27.9836 104.981 27.1333 99.5999 23.2759 98.7448Z" fill="#FF9200"/>
<mask id="mask4_54_686" style="mask-type:luminance" maskUnits="userSpaceOnUse" x="9" y="98" width="18" height="22">
<path d="M23.2762 98.7446C19.419 97.8896 14.0153 101.885 11.2067 107.668C8.39808 113.452 9.24819 118.833 13.1054 119.688C16.9627 120.543 22.3664 116.548 25.175 110.765C27.9836 104.981 27.1335 99.5997 23.2762 98.7446Z" fill="white"/>
</mask>
<g mask="url(#mask4_54_686)">
<path d="M21.4776 97.9492C17.9642 97.1704 12.8393 101.227 10.0307 107.011C7.22211 112.794 7.79347 118.114 11.3069 118.893C14.8202 119.671 19.9452 115.614 22.7538 109.831C25.5624 104.048 24.991 98.728 21.4776 97.9492Z" fill="#C36F00"/>
<mask id="mask5_54_686" style="mask-type:luminance" maskUnits="userSpaceOnUse" x="8" y="97" width="17" height="22">
<path d="M21.4778 97.9493C17.9643 97.1705 12.8393 101.227 10.0308 107.011C7.22225 112.794 7.7937 118.114 11.3072 118.892C14.8206 119.671 19.9456 115.614 22.7541 109.831C25.5627 104.048 24.9912 98.7282 21.4778 97.9493Z" fill="white"/>
</mask>
<g mask="url(#mask5_54_686)">
<path d="M20.8287 99.9682C17.3153 99.1893 12.1903 103.246 9.38173 109.03C6.57317 114.813 7.14455 120.133 10.658 120.911C14.1714 121.69 19.2963 117.633 22.1049 111.85C24.9135 106.067 24.3421 100.747 20.8287 99.9682Z" fill="#FF9200"/>
</g>
<path d="M21.4776 97.9492C17.9642 97.1704 12.8393 101.227 10.0307 107.011C7.22211 112.794 7.79347 118.114 11.3069 118.893C14.8202 119.671 19.9452 115.614 22.7538 109.831C25.5624 104.048 24.991 98.728 21.4776 97.9492Z" stroke="#985904" stroke-width="0.516835" stroke-miterlimit="1.5" stroke-linecap="round" stroke-linejoin="round"/>
</g>
<path d="M23.2759 98.7448C19.4186 97.8897 14.0148 101.885 11.2063 107.668C8.39776 113.451 9.24802 118.833 13.1054 119.688C16.9628 120.543 22.3665 116.548 25.1751 110.765C27.9836 104.981 27.1333 99.5999 23.2759 98.7448Z" stroke="#985904" stroke-width="0.500303" stroke-miterlimit="1.5" stroke-linecap="round" stroke-linejoin="round"/>
<path fill-rule="evenodd" clip-rule="evenodd" d="M332.293 200.054C350.899 205.656 343.83 228.34 343.83 228.34L298.347 338.28C284.889 360.275 272.281 353.086 266.392 347.514C266.392 347.514 282.508 355.431 291.689 334.736C300.872 314.041 336.622 221.108 336.622 221.108C336.622 221.108 337.853 207.186 322.439 207.166C307.025 207.145 207.523 202.765 207.523 202.765C207.523 202.765 192.365 203.579 182.445 219.278C177.144 216.825 173.803 216.557 173.803 216.557C189.681 193.331 211.083 194.859 211.083 194.859L332.293 200.054Z" fill="#FDC108" stroke="#D3830B" stroke-miterlimit="2" stroke-linejoin="round"/>
<path fill-rule="evenodd" clip-rule="evenodd" d="M182.445 219.278C192.365 203.579 207.523 202.765 207.523 202.765C207.523 202.765 307.025 207.145 322.439 207.166C337.853 207.185 336.622 221.108 336.622 221.108C336.622 221.108 300.872 314.041 291.689 334.736C282.508 355.431 266.392 347.514 266.392 347.514C264.179 345.415 262.913 343.549 262.913 343.549C262.913 343.549 242.388 305.769 220.674 262.175C206.874 234.471 191.684 223.555 182.445 219.278Z" fill="#FBDF02" stroke="#D3830B" stroke-miterlimit="2" stroke-linejoin="round"/>
<path fill-rule="evenodd" clip-rule="evenodd" d="M173.803 216.557C173.803 216.557 177.144 216.825 182.445 219.278C191.684 223.555 206.874 234.471 220.674 262.175C242.388 305.769 262.913 343.549 262.913 343.549C262.913 343.549 264.179 345.415 266.392 347.514C272.281 353.086 284.889 360.275 298.347 338.28L343.831 228.34C343.831 228.34 350.899 205.656 332.293 200.054L335.625 200.198C358.924 204.836 348.143 236.423 348.143 236.423C348.143 236.423 319.504 313.989 306.892 339.753C293.986 366.121 276.112 361.533 276.112 361.533L269.211 360.664C257.632 357.298 252.095 345.433 252.095 345.433C252.095 345.433 231.037 303.361 211.382 265.311C191.729 227.262 171.008 224.341 171.008 224.341C171.008 224.341 143.255 222.676 113.192 220.773C97.7417 219.794 81.679 218.752 68.4653 217.843C56.3452 217.008 46.6208 216.284 41.9562 215.82C22.3054 213.865 15.5396 222.028 15.5396 222.028C20.4834 208.796 34.9325 208.618 34.9325 208.618L173.803 216.557Z" fill="#F09C00" stroke="#D3830B" stroke-miterlimit="2" stroke-linejoin="round"/>
<path fill-rule="evenodd" clip-rule="evenodd" d="M15.5396 222.028C15.5396 222.028 22.3054 213.866 41.9563 215.82C46.6208 216.284 56.3452 217.008 68.4653 217.844L92.7463 258.426C92.7463 258.426 104.462 279.639 127.179 278.34C149.898 277.038 133.451 254.779 133.451 254.779L113.192 220.773C143.255 222.676 171.008 224.341 171.008 224.341C171.008 224.341 191.729 227.262 211.382 265.311C231.037 303.361 252.095 345.433 252.095 345.433C252.095 345.433 257.632 357.298 269.211 360.664L92.8387 338.424C80.551 336.145 73.2158 326.512 73.2158 326.512L19.4285 243.316C19.4285 243.316 12.8603 233.575 14.5255 225.565C14.7897 224.294 15.1335 223.117 15.5396 222.028Z" fill="#FDC108" stroke="#D3830B" stroke-miterlimit="2" stroke-linejoin="round"/>
<path fill-rule="evenodd" clip-rule="evenodd" d="M68.4653 217.844C81.679 218.752 97.7417 219.794 113.192 220.773L133.451 254.779C133.451 254.779 149.898 277.038 127.179 278.34C104.462 279.639 92.7463 258.426 92.7463 258.426L68.4653 217.844ZM107.404 244.701C100.722 244.701 98.0103 250.125 101.349 256.805C104.69 263.485 112.827 268.906 119.509 268.906C126.191 268.906 128.902 263.485 125.561 256.805C122.223 250.125 114.084 244.701 107.404 244.701Z" fill="#FDC108" stroke="#D3830B" stroke-miterlimit="2" stroke-linejoin="round"/>
<path fill-rule="evenodd" clip-rule="evenodd" d="M107.404 244.701C114.084 244.701 122.223 250.125 125.561 256.805C128.902 263.485 126.191 268.906 119.509 268.906C112.827 268.906 104.69 263.485 101.349 256.805C98.0103 250.125 100.722 244.701 107.404 244.701Z" fill="#FDC108" stroke="#D3830B" stroke-miterlimit="2" stroke-linejoin="round"/>
<path d="M145.197 131.199C168.711 131.199 194.286 103.599 202.321 69.5525C210.356 35.506 197.807 7.90588 174.293 7.90588C150.779 7.90588 125.204 35.506 117.169 69.5525C109.134 103.599 121.683 131.199 145.197 131.199Z" fill="#9B57AE" stroke="#570071" stroke-width="0.969866" stroke-miterlimit="1.5" stroke-linecap="round" stroke-linejoin="round"/>
<path d="M134.092 128.282C158.265 128.282 184.557 99.9082 192.817 64.9078C201.077 29.9074 188.176 1.53394 164.003 1.53394C139.831 1.53394 113.539 29.9074 105.279 64.9078C97.0192 99.9082 109.919 128.282 134.092 128.282Z" fill="#D4A0E3" stroke="#570071" stroke-width="0.964879" stroke-miterlimit="1.5" stroke-linecap="round" stroke-linejoin="round"/>
<path d="M133.805 118.833C152.454 118.833 173.269 94.6897 180.297 64.9079C187.325 35.126 177.905 10.983 159.257 10.983C140.608 10.983 119.793 35.126 112.765 64.9079C105.737 94.6897 115.157 118.833 133.805 118.833Z" fill="#9B57AE"/>
<mask id="mask6_54_686" style="mask-type:luminance" maskUnits="userSpaceOnUse" x="110" y="10" width="73" height="109">
<path d="M133.802 118.833C152.449 118.833 173.264 94.6897 180.294 64.9079C187.324 35.126 177.907 10.983 159.26 10.983C140.613 10.983 119.798 35.126 112.768 64.9079C105.738 94.6897 115.155 118.833 133.802 118.833Z" fill="white"/>
</mask>
<g mask="url(#mask6_54_686)">
<path d="M139.891 120.677C158.537 120.677 179.352 96.5342 186.382 66.7523C193.413 36.9705 183.996 12.8275 165.35 12.8275C146.704 12.8275 125.889 36.9705 118.859 66.7523C111.828 96.5342 121.244 120.677 139.891 120.677Z" fill="#9B57AE"/>
<mask id="mask7_54_686" style="mask-type:luminance" maskUnits="userSpaceOnUse" x="116" y="12" width="73" height="109">
<path d="M139.889 120.677C158.535 120.677 179.35 96.5342 186.381 66.7523C193.412 36.9705 183.997 12.8275 165.352 12.8275C146.706 12.8275 125.891 36.9705 118.86 66.7523C111.829 96.5342 121.244 120.677 139.889 120.677Z" fill="white"/>
</mask>
<g mask="url(#mask7_54_686)">
<path d="M140.673 110.622C159.318 110.622 180.134 86.4788 187.165 56.6969C194.197 26.9151 184.782 2.77209 166.137 2.77209C147.491 2.77209 126.676 26.9151 119.645 56.6969C112.613 86.4788 122.028 110.622 140.673 110.622Z" fill="#D4A0E3"/>
</g>
<path d="M139.891 120.677C158.537 120.677 179.352 96.5342 186.382 66.7523C193.413 36.9705 183.996 12.8275 165.35 12.8275C146.704 12.8275 125.889 36.9705 118.859 66.7523C111.828 96.5342 121.244 120.677 139.891 120.677Z" stroke="#570071" stroke-width="1.00325" stroke-miterlimit="1.5" stroke-linecap="round" stroke-linejoin="round"/>
</g>
<path d="M133.805 118.833C152.454 118.833 173.269 94.6897 180.297 64.9079C187.325 35.126 177.905 10.983 159.257 10.983C140.608 10.983 119.793 35.126 112.765 64.9079C105.737 94.6897 115.157 118.833 133.805 118.833Z" stroke="#570071" stroke-width="1.00325" stroke-miterlimit="1.5" stroke-linecap="round" stroke-linejoin="round"/>
<path d="M34.3469 157.393C38.5326 168.88 56.4518 176.507 74.3705 174.427C92.2893 172.347 103.422 161.349 99.2364 149.862C95.0507 138.375 77.1315 130.749 59.2127 132.828C41.294 134.908 30.1612 145.906 34.3469 157.393Z" fill="#878787" stroke="#6A6A6A" stroke-width="0.96383" stroke-miterlimit="1.5" stroke-linecap="round" stroke-linejoin="round"/>
<path d="M33.7838 151.455C38.0868 163.264 56.5081 171.104 74.9289 168.966C93.3497 166.828 104.794 155.522 100.491 143.713C96.1885 131.904 77.7672 124.064 59.3464 126.202C40.9256 128.34 29.4808 139.646 33.7838 151.455Z" fill="#B9B9B9" stroke="#6A6A6A" stroke-width="0.965857" stroke-miterlimit="1.5" stroke-linecap="round" stroke-linejoin="round"/>
<path d="M38.3088 149.648C41.6284 158.759 57.026 164.669 72.7004 162.85C88.3747 161.031 98.3902 152.171 95.0706 143.06C91.751 133.95 76.3533 128.04 60.679 129.859C45.0046 131.678 34.9892 140.538 38.3088 149.648Z" fill="#B9B9B9"/>
<mask id="mask8_54_686" style="mask-type:luminance" maskUnits="userSpaceOnUse" x="37" y="129" width="59" height="35">
<path d="M38.3091 149.648C41.6289 158.759 57.0265 164.669 72.7007 162.85C88.3749 161.031 98.3901 152.171 95.0703 143.061C91.7506 133.95 76.3529 128.039 60.6788 129.859C45.0046 131.678 34.9893 140.538 38.3091 149.648Z" fill="white"/>
</mask>
<g mask="url(#mask8_54_686)">
<path d="M38.4995 152.948C41.8193 162.058 57.2169 167.969 72.8911 166.15C88.5653 164.331 98.5805 155.471 95.2607 146.36C91.9409 137.25 76.5432 131.339 60.8691 133.158C45.1949 134.977 35.1797 143.837 38.4995 152.948Z" fill="#878787"/>
<mask id="mask9_54_686" style="mask-type:luminance" maskUnits="userSpaceOnUse" x="37" y="132" width="59" height="35">
<path d="M38.4995 152.948C41.8193 162.058 57.2169 167.969 72.891 166.15C88.5652 164.331 98.5804 155.471 95.2606 146.36C91.9408 137.25 76.5432 131.339 60.869 133.158C45.1949 134.977 35.1797 143.837 38.4995 152.948Z" fill="white"/>
</mask>
<g mask="url(#mask9_54_686)">
<path d="M43.5094 151.558C46.8293 160.668 62.2269 166.579 77.901 164.76C93.5751 162.941 103.59 154.08 100.27 144.97C96.9505 135.86 81.5529 129.949 65.8788 131.768C50.2047 133.587 40.1896 142.447 43.5094 151.558Z" fill="#B9B9B9"/>
</g>
<path d="M38.4995 152.948C41.8193 162.058 57.2169 167.969 72.8911 166.15C88.5653 164.331 98.5805 155.471 95.2607 146.36C91.9409 137.25 76.5432 131.339 60.8691 133.158C45.1949 134.977 35.1797 143.837 38.4995 152.948Z" stroke="#6A6A6A" stroke-width="1.00517" stroke-miterlimit="1.5" stroke-linecap="round" stroke-linejoin="round"/>
</g>
<path d="M38.3088 149.648C41.6284 158.759 57.026 164.669 72.7004 162.85C88.3747 161.031 98.3902 152.171 95.0706 143.06C91.751 133.95 76.3533 128.04 60.679 129.859C45.0046 131.678 34.9892 140.538 38.3088 149.648Z" stroke="#6A6A6A" stroke-width="1.00517" stroke-miterlimit="1.5" stroke-linecap="round" stroke-linejoin="round"/>
<path d="M206.688 225.095C200.118 209.746 209.983 185.779 228.723 171.562C247.462 157.345 267.979 158.262 274.549 173.611C281.119 188.96 271.253 212.928 252.514 227.145C233.775 241.362 213.258 240.444 206.688 225.095Z" fill="#A8EDFF" stroke="#004D61" stroke-width="0.951168" stroke-miterlimit="1.5" stroke-linecap="round" stroke-linejoin="round"/>
<path d="M211.588 231.573C204.834 215.794 214.976 191.155 234.24 176.54C253.504 161.925 274.596 162.868 281.35 178.647C288.104 194.426 277.962 219.065 258.698 233.681C239.434 248.296 218.342 247.352 211.588 231.573Z" fill="#5BDDFF" stroke="#004D61" stroke-width="0.955597" stroke-miterlimit="1.5" stroke-linecap="round" stroke-linejoin="round"/>
<path d="M217.492 229.27C212.281 217.097 221.346 197.148 237.738 184.712C254.13 172.276 271.642 172.062 276.853 184.235C282.063 196.408 272.999 216.358 256.606 228.794C240.214 241.23 222.702 241.443 217.492 229.27Z" fill="#0C7A96"/>
<mask id="mask10_54_686" style="mask-type:luminance" maskUnits="userSpaceOnUse" x="216" y="175" width="63" height="64">
<path d="M217.49 229.268C212.279 217.095 221.343 197.147 237.735 184.711C254.128 172.276 271.641 172.063 276.852 184.236C282.063 196.408 272.998 216.357 256.606 228.792C240.214 241.228 222.701 241.441 217.49 229.268Z" fill="white"/>
</mask>
<g mask="url(#mask10_54_686)">
<path d="M214.654 225.781C209.443 213.608 218.507 193.659 234.899 181.223C251.291 168.787 268.803 168.574 274.014 180.747C279.225 192.921 270.161 212.87 253.769 225.306C237.377 237.742 219.865 237.955 214.654 225.781Z" fill="#0C7A96"/>
<mask id="mask11_54_686" style="mask-type:luminance" maskUnits="userSpaceOnUse" x="213" y="171" width="63" height="64">
<path d="M214.654 225.782C209.443 213.609 218.507 193.66 234.899 181.223C251.291 168.787 268.804 168.574 274.014 180.747C279.225 192.92 270.161 212.869 253.769 225.306C237.377 237.742 219.864 237.955 214.654 225.782Z" fill="white"/>
</mask>
<g mask="url(#mask11_54_686)">
<path d="M220.632 222.62C215.422 210.447 224.486 190.497 240.878 178.061C257.27 165.625 274.782 165.411 279.993 177.584C285.204 189.757 276.139 209.707 259.747 222.143C243.355 234.579 225.843 234.792 220.632 222.62Z" fill="#5BDDFF"/>
</g>
<path d="M214.654 225.781C209.443 213.608 218.507 193.659 234.899 181.223C251.291 168.787 268.803 168.574 274.014 180.747C279.225 192.921 270.161 212.87 253.769 225.306C237.377 237.742 219.865 237.955 214.654 225.781Z" stroke="#004D61" stroke-width="0.990299" stroke-miterlimit="1.5" stroke-linecap="round" stroke-linejoin="round"/>
</g>
<path d="M217.492 229.27C212.281 217.097 221.346 197.148 237.738 184.712C254.13 172.276 271.642 172.062 276.853 184.235C282.063 196.408 272.999 216.358 256.606 228.794C240.214 241.23 222.702 241.443 217.492 229.27Z" stroke="#004D61" stroke-width="0.990299" stroke-miterlimit="1.5" stroke-linecap="round" stroke-linejoin="round"/>
<path d="M297.593 130.033C280.944 128.755 264.253 108.922 260.313 85.7346C256.373 62.5467 266.675 44.7847 283.324 46.0621C299.972 47.3395 316.663 67.1725 320.604 90.3603C324.544 113.548 314.242 131.31 297.593 130.033Z" fill="#F09C00" stroke="#D3830B" stroke-width="0.951168" stroke-miterlimit="1.5" stroke-linecap="round" stroke-linejoin="round"/>
<path d="M305.605 128.687C288.49 127.374 271.331 106.985 267.28 83.1474C263.23 59.3099 273.82 41.0502 290.936 42.3634C308.051 43.6766 325.209 64.0653 329.26 87.9028C333.311 111.74 322.72 130 305.605 128.687Z" fill="#FBDF02" stroke="#D3830B" stroke-width="0.955596" stroke-miterlimit="1.5" stroke-linecap="round" stroke-linejoin="round"/>
<path d="M306.293 122.388C293.089 121.375 279.592 104.111 276.145 83.8277C272.698 63.5443 280.608 47.9227 293.811 48.9357C307.015 49.9488 320.513 67.2129 323.96 87.4963C327.407 107.78 319.497 123.401 306.293 122.388Z" fill="#FBDF02"/>
<mask id="mask12_54_686" style="mask-type:luminance" maskUnits="userSpaceOnUse" x="275" y="48" width="50" height="75">
<path d="M306.295 122.389C293.093 121.376 279.595 104.112 276.147 83.8284C272.699 63.5446 280.607 47.9224 293.809 48.9351C307.012 49.9477 320.51 67.2119 323.958 87.4956C327.406 107.779 319.498 123.402 306.295 122.389Z" fill="white"/>
</mask>
<g mask="url(#mask12_54_686)">
<path d="M301.89 123.291C288.687 122.278 275.19 105.014 271.741 84.73C268.293 64.4462 276.2 48.8237 289.403 49.8363C302.605 50.8488 316.103 68.113 319.551 88.3968C322.999 108.681 315.092 124.303 301.89 123.291Z" fill="#F09C00"/>
<mask id="mask13_54_686" style="mask-type:luminance" maskUnits="userSpaceOnUse" x="270" y="49" width="51" height="75">
<path d="M301.891 123.291C288.689 122.278 275.191 105.014 271.742 84.7304C268.293 64.4463 276.2 48.8236 289.402 49.836C302.604 50.8484 316.102 68.1125 319.55 88.3965C322.999 108.681 315.093 124.303 301.891 123.291Z" fill="white"/>
</mask>
<g mask="url(#mask13_54_686)">
<path d="M301.852 116.529C288.65 115.517 275.152 98.2528 271.703 77.9687C268.254 57.6846 276.16 42.0618 289.362 43.0741C302.564 44.0864 316.062 61.3506 319.511 81.6347C322.96 101.919 315.053 117.542 301.852 116.529Z" fill="#FBDF02"/>
</g>
<path d="M301.89 123.291C288.687 122.278 275.19 105.014 271.741 84.73C268.293 64.4462 276.2 48.8237 289.403 49.8363C302.605 50.8488 316.103 68.113 319.551 88.3968C322.999 108.681 315.092 124.303 301.89 123.291Z" stroke="#D3830B" stroke-width="0.990299" stroke-miterlimit="1.5" stroke-linecap="round" stroke-linejoin="round"/>
</g>
<path d="M306.293 122.388C293.089 121.375 279.592 104.111 276.145 83.8277C272.698 63.5443 280.608 47.9227 293.811 48.9357C307.015 49.9488 320.513 67.2129 323.96 87.4963C327.407 107.78 319.497 123.401 306.293 122.388Z" stroke="#D3830B" stroke-width="0.990299" stroke-miterlimit="1.5" stroke-linecap="round" stroke-linejoin="round"/>
<path fill-rule="evenodd" clip-rule="evenodd" d="M142.84 33.0337L143.848 33.9664C147.09 36.9653 148.073 41.6872 146.299 45.7296C141.031 57.7327 130.585 81.5334 130.585 81.5334L129.575 80.5994C126.335 77.6018 125.352 72.8799 127.126 68.8375C132.394 56.8344 142.84 33.0337 142.84 33.0337Z" stroke="#570071" stroke-width="1.21511" stroke-miterlimit="1.5" stroke-linecap="round" stroke-linejoin="round"/>
<path fill-rule="evenodd" clip-rule="evenodd" d="M149.41 50.3759C150.219 48.5313 151.872 47.1903 153.845 46.7803C155.818 46.3691 157.868 46.937 159.347 48.3058L144.186 82.8532C143.376 84.6994 141.723 86.0376 139.751 86.4487C137.776 86.8603 135.727 86.2908 134.247 84.922L149.41 50.3759Z" stroke="#570071" stroke-width="1.21511" stroke-miterlimit="1.5" stroke-linecap="round" stroke-linejoin="round"/>
<path fill-rule="evenodd" clip-rule="evenodd" d="M162.475 51.1996L163.483 52.1323C166.724 55.1311 167.708 59.8529 165.933 63.8953C160.665 75.8984 150.219 99.6989 150.219 99.6989L149.209 98.765C145.969 95.7674 144.986 91.0456 146.76 87.0032C152.029 75.0001 162.475 51.1996 162.475 51.1996Z" stroke="#570071" stroke-width="1.21511" stroke-miterlimit="1.5" stroke-linecap="round" stroke-linejoin="round"/>
<path fill-rule="evenodd" clip-rule="evenodd" d="M237.632 191.269C237.965 189.86 238.955 188.699 240.292 188.149C241.629 187.598 243.151 187.725 244.377 188.489C249.603 191.747 257.648 196.762 263.633 200.493C265.097 201.405 265.908 203.076 265.719 204.791C265.53 206.506 264.374 207.961 262.746 208.534C250.794 212.736 230.925 219.724 230.925 219.724C230.925 219.724 235.296 201.184 237.632 191.269Z" stroke="#004D61" stroke-width="1.13765" stroke-miterlimit="1.5" stroke-linecap="round" stroke-linejoin="round"/>
<path d="M255.315 195.308L230.926 219.724" stroke="#004D61" stroke-width="1.13765" stroke-miterlimit="1.5" stroke-linecap="round" stroke-linejoin="round"/>
<path fill-rule="evenodd" clip-rule="evenodd" d="M289.372 64.4644H293.41L294.591 69.1931H297.031L295.863 64.5174H299.857L301.14 69.6549C301.14 69.6549 308.981 70.842 310.667 77.4825C312.352 84.1227 307.639 85.3459 307.639 85.3459C307.639 85.3459 314.272 87.0572 315.803 93.1885C317.334 99.3198 312.64 102.475 309.407 102.475L310.179 105.564H306.099L305.414 102.821H303.146L303.831 105.564H299.556L298.858 102.769H290.156L289.23 99.0601L292.623 98.2339L286.477 73.6258L282.733 72.6083L281.887 69.2201H290.475L289.372 64.4644Z" stroke="#D3830B" stroke-width="0.896647" stroke-miterlimit="1.5" stroke-linecap="round" stroke-linejoin="round"/>
<path fill-rule="evenodd" clip-rule="evenodd" d="M292.348 73.579L294.648 82.786H302.971C302.971 82.786 305.799 81.7548 304.86 77.9951C303.921 74.2357 300.119 73.5172 299.045 73.5172C297.971 73.5172 292.348 73.579 292.348 73.579Z" stroke="#D3830B" stroke-width="0.896647" stroke-miterlimit="1.5" stroke-linecap="round" stroke-linejoin="round"/>
<path fill-rule="evenodd" clip-rule="evenodd" d="M295.847 87.6046L298.453 98.0403H306.762C306.762 98.0403 311.008 97.4735 309.808 92.666C308.607 87.8584 303.907 87.3573 302.431 87.3573C300.956 87.3573 295.847 87.6046 295.847 87.6046Z" stroke="#D3830B" stroke-width="0.896647" stroke-miterlimit="1.5" stroke-linecap="round" stroke-linejoin="round"/>
<path fill-rule="evenodd" clip-rule="evenodd" d="M82.3554 146.571L66.7669 137.589L62.4044 149.466L69.9796 158.936L82.3554 146.571Z" stroke="#6A6A6A" stroke-width="0.999911" stroke-miterlimit="1.5" stroke-linecap="round" stroke-linejoin="round"/>
<path fill-rule="evenodd" clip-rule="evenodd" d="M61.3741 142.38L58.6472 150.012L63.2939 155.594L51.83 151.002L61.3741 142.38Z" stroke="#6A6A6A" stroke-width="0.999911" stroke-miterlimit="1.5" stroke-linecap="round" stroke-linejoin="round"/>
<path fill-rule="evenodd" clip-rule="evenodd" d="M177.641 -0.00109863L179.151 5.28854L184.49 3.95135L180.663 7.90383L184.49 11.8563L179.151 10.5191L177.641 15.8088L176.132 10.5191L170.795 11.8563L174.622 7.90383L170.795 3.95135L176.132 5.28854L177.641 -0.00109863Z" fill="white"/>
<path fill-rule="evenodd" clip-rule="evenodd" d="M32.877 138.447L34.3865 143.737L39.7261 142.4L35.8987 146.352L39.7261 150.305L34.3865 148.968L32.877 154.257L31.3675 148.968L26.0306 150.305L29.8581 146.352L26.0306 142.4L31.3675 143.737L32.877 138.447Z" fill="white"/>
<path fill-rule="evenodd" clip-rule="evenodd" d="M232.52 168.526L236.477 172.348L240.428 168.516L239.097 173.854L244.39 175.357L239.1 176.875L240.445 182.209L236.487 178.387L232.539 182.217L233.87 176.88L228.576 175.376L233.865 173.86L232.52 168.526Z" fill="white"/>
<path fill-rule="evenodd" clip-rule="evenodd" d="M27.7384 208.503L32.871 213.46L37.9937 208.49L36.2681 215.413L43.1326 217.362L36.2713 219.33L38.0161 226.247L32.8834 221.291L27.7636 226.258L29.4893 219.336L22.6248 217.387L29.4831 215.421L27.7384 208.503Z" fill="white"/>
<path fill-rule="evenodd" clip-rule="evenodd" d="M329.091 208.643L334.224 213.599L339.346 208.63L337.621 215.552L344.485 217.502L337.624 219.47L339.369 226.387L334.236 221.431L329.116 226.398L330.842 219.476L323.977 217.526L330.836 215.56L329.091 208.643Z" fill="white"/>
<path fill-rule="evenodd" clip-rule="evenodd" d="M281.154 40.8894L280.843 46.3815L286.325 46.87L281.413 49.3481L283.73 54.3374L279.125 51.3226L275.963 55.8243L276.274 50.3322L270.794 49.8446L275.707 47.3665L273.39 42.3771L277.991 45.3911L281.154 40.8894Z" fill="white"/>
</g>
<defs>
<clipPath id="clip0_54_686">
<rect width="376" height="363" fill="white"/>
</clipPath>
</defs>
</svg>
